<?xml version="1.0" encoding="UTF-8"?>
<svg enable-background="new 0 0 459.1 119.6" version="1.1" viewBox="0 0 459.1 119.6" xml:space="preserve" xmlns="http://www.w3.org/2000/svg">
<style type="text/css">
	.st0{fill:#7D7D7D;}
	.st1{fill:#FFD800;}
</style>
	<path class="st0" d="m171.1 23.8c0 5.7-3.3 9.3-8.6 9.3-5.2 0-8.6-3.6-8.6-9.2 0-5.7 3.5-9.2 8.9-9.2 4.9-0.1 8.3 3.6 8.3 9.1zm-14.5 0c0 4.3 2.3 7.2 5.9 7.2 3.5 0 5.8-2.9 5.8-7.1 0-4.4-2.3-7.2-5.8-7.2s-5.9 2.9-5.9 7.1zm18.5-0.2c0-1.4 0-2.8-0.1-3.8h2.3c0.1 0.5 0.1 1.4 0.1 2.1h0.1c1-1.6 2.5-2.4 4.5-2.4 3.3 0 5.6 2.7 5.6 6.6 0 4.1-2.3 7-5.6 7-2 0-3.6-1.1-4.4-2.5 0.1 0.5 0.1 2.5 0.1 3.2v4.3h-2.4v-14.5h-0.2zm2.4 2.7c0 2.6 1.7 4.8 3.8 4.8 2.2 0 3.6-2.1 3.6-4.8 0-2.9-1.4-4.8-3.6-4.8-2.1 0-3.8 2.1-3.8 4.8zm15.4 0.5c0.1 2.6 1.9 4.2 4.5 4.2 1.5 0 2.6-0.4 3.8-1l0.1 2.2c-1.2 0.5-2.5 0.8-4 0.8-4.3 0-6.8-2.6-6.8-6.9 0-4.1 2.5-6.7 6.2-6.7 3.4 0 5.6 2 5.6 6.4v1h-9.4zm6.9-1.8c0-2.5-1.4-3.7-3.3-3.7s-3.4 1.4-3.6 3.7h6.9zm8.4-3.2c1-1.5 2.5-2.4 4.3-2.4 3.7 0 4.8 2.4 4.8 5.9v7.4h-2.3v-6.4c0-2.5-0.2-4.9-3-4.9-1.3 0-2.4 0.7-3.1 1.9-0.4 0.7-0.6 1.7-0.6 3.2v6.2h-2.4v-9.1c0-1.4 0-2.8-0.1-3.8h2.4v2zm27.7-6.3c-0.4-0.1-0.9-0.2-1.2-0.2-1.6 0-2.2 1-2.2 3.2v1.3h3.5v1.9h-3.5v11h-2.5v-11h-3v-1.9h3.1v-1.2c0-3.1 1.1-5.2 4.2-5.2 0.6 0 1.1 0 1.8 0.2l-0.2 1.9zm15.2 10.8c0 4-2.8 6.7-6.7 6.7-3.8 0-6.7-2.8-6.7-6.7 0-4.1 2.8-6.9 6.8-6.9 3.8 0.1 6.5 2.9 6.6 6.9zm-10.8 0c0 2.8 1.7 4.7 4.2 4.7 2.4 0 4.1-1.9 4.1-4.7 0-2.9-1.7-4.9-4.2-4.9-2.4 0.1-4.1 2.1-4.1 4.9zm16.8-4.4c0.7-1.5 2-2.5 3.6-2.5 0.5 0 0.9 0.1 1.2 0.2v2.3c-0.3-0.1-0.7-0.2-1.3-0.2-2.2 0-3.6 1.9-3.6 5.2v5.9h-2.4v-9.2c0-1.4 0-2.8-0.1-3.8h2.4c0.1 0.6 0.1 1.5 0.2 2.1zm17.4 10.9h-2.6v-17.8h2.6v17.8zm7.2-11c1-1.5 2.5-2.4 4.3-2.4 3.7 0 4.8 2.4 4.8 5.9v7.4h-2.4v-6.4c0-2.5-0.2-4.9-3-4.9-1.3 0-2.4 0.7-3.1 1.9-0.4 0.7-0.6 1.7-0.6 3.2v6.2h-2.4v-9.1c0-1.4 0-2.8-0.1-3.8h2.4c0 0.5 0.1 1.4 0.1 2zm16 0c1-1.5 2.4-2.4 4.3-2.4 3.7 0 4.8 2.4 4.8 5.9v7.4h-2.4v-6.4c0-2.5-0.2-4.9-3-4.9-1.3 0-2.5 0.7-3.1 1.9-0.4 0.7-0.6 1.7-0.6 3.2v6.2h-2.4v-9.1c0-1.4 0-2.8-0.1-3.8h2.4c0 0.5 0 1.4 0.1 2zm26 4.5c0 4-2.8 6.7-6.7 6.7s-6.7-2.8-6.7-6.7c0-4.1 2.8-6.9 6.8-6.9 3.9 0.1 6.6 2.9 6.6 6.9zm-10.7 0c0 2.8 1.7 4.7 4.1 4.7s4.1-1.9 4.1-4.7c0-2.9-1.7-4.9-4.2-4.9-2.3 0.1-4 2.1-4 4.9zm17.5 1.4c0.3 0.8 0.7 2.2 0.9 3.1 0.2-0.9 0.7-2.4 1-3.1l2.6-7.9h2.5l-4.8 13h-2.9l-4.7-13h2.6l2.8 7.9zm9.9-7.2c1.2-0.7 2.8-1.1 4.3-1.1 3.8 0 5.2 2.2 5.2 5.2v4.2c0 1.4 0 3 0.1 3.9h-2.2v-1.1c0-0.3 0-0.8 0.1-1.2h-0.1c-0.9 1.6-2.3 2.4-4.3 2.4-2.8 0-4.5-1.5-4.5-3.9 0-2.7 2.5-4.2 6.8-4.2 0.5 0 1.2 0 1.8 0.1v-0.1c0-2.2-1.1-3.3-3.3-3.3-1.3 0-2.7 0.5-3.8 1.2l-0.1-2.1zm6 6c-3.2 0-4.8 0.8-4.8 2.5 0 1.3 1 2 2.5 2 1.4 0 2.7-0.7 3.2-1.9 0.3-0.6 0.4-1.4 0.4-2.6h-1.3zm11.5-6.7h3.5v1.9h-3.5v5.7c0 2.1 0.3 3.5 2.2 3.5 0.5 0 0.9-0.1 1.4-0.3l0.1 1.9c-0.6 0.2-1.3 0.4-2.1 0.4-3.3 0-4-2-4-4.8v-6.4h-3v-1.9h3v-3.1l2.4-0.8v3.9zm9.3-2.4h-2.7v-2.7h2.7v2.7zm-0.1 15.4h-2.5v-13h2.5v13zm17-6.5c0 4-2.8 6.7-6.7 6.7s-6.7-2.8-6.7-6.7c0-4.1 2.8-6.9 6.8-6.9 3.8 0.1 6.6 2.9 6.6 6.9zm-10.8 0c0 2.8 1.7 4.7 4.1 4.7s4.1-1.9 4.1-4.7c0-2.9-1.7-4.9-4.2-4.9-2.3 0.1-4 2.1-4 4.9zm16.8-4.5c1-1.5 2.5-2.4 4.3-2.4 3.7 0 4.8 2.4 4.8 5.9v7.4h-2.4v-6.4c0-2.5-0.3-4.9-3-4.9-1.3 0-2.5 0.7-3.1 1.9-0.4 0.7-0.6 1.7-0.6 3.2v6.2h-2.4v-9.1c0-1.4 0-2.8-0.1-3.8h2.4c0 0.5 0 1.4 0.1 2zm-222.9 29.2v31.7h0.3l25.1-31.7h15.1l-25.6 32.3 33.1 36.3h-17l-31.1-33.7v33.7h-13.3v-68.6h13.4zm66.3 0l40.8 47.9v-47.9h13v68.6h-11.4l-41-48.7v48.7h-13v-68.6h11.6zm81.9 0v68.6h-13.3v-68.6h13.3zm26.9 0l22.6 27 22.5-27h11.8v68.6h-13.2v-48.2h-0.4l-19.9 24.2h-1.9l-19.8-24.2h-0.4v48.2h-13.3v-68.6h12zm116.1 0v10.4h-31.1v18h29.8v10.4h-29.8v19.5h31.8v10.4h-45.1v-68.7h44.4z"/>
<path class="st1" d="m69.1 0l-69.1 119.6h138.1l-69-119.6zm-15.8 105.3v-45.6l1.4-6.3 39.5 22.8 4.8 4.4-39.6 22.8c0.1 0-6.1 1.9-6.1 1.9zm2-54.6l1.9-8.6 28.3 26-30.2-17.4zm-4.6 55.5l-8.4 2.6 8.4-37.5v34.9zm50.4-23.8l6.5 5.9-36.7 11.5 30.2-17.4zm-42.6-43.6l2.7-7.2 32.1 39.2-34.8-32zm-19.6 70.6l-7.6 1.2 17.9-47.3-10.3 46.1zm70.9-18.4l4.9 5.9-49.9 8.2 45-14.1zm-47.5-64.2l2.8-5.8 34.2 51-37-45.2zm-35.7 85.3l-6.4 0.4 27.1-55.1c-0.1 0-20.7 54.7-20.7 54.7zm91.7-11.8l3.6 5.3-61.3 4.1 57.7-9.4zm-14.8-30.2l-37-55.2 2.6-4.5 34.4 59.7zm-60-15.4l-29.3 59.7h-5.2l34.5-59.7zm16.6 59.7l66.4-4.5 2.6 4.5h-69z"/>
<path class="st0" d="m459.1 21.1c0 1-0.2 1.8-0.5 2.6s-0.8 1.5-1.4 2-1.2 1-2 1.3-1.5 0.5-2.4 0.5-1.8-0.2-2.5-0.5c-0.8-0.3-1.4-0.8-2-1.3-0.5-0.6-1-1.2-1.3-2s-0.5-1.6-0.5-2.5c0-1 0.2-1.8 0.5-2.6s0.8-1.5 1.4-2c0.6-0.6 1.2-1 2-1.3s1.6-0.5 2.4-0.5 1.6 0.2 2.4 0.5 1.4 0.7 2 1.3 1 1.2 1.4 2c0.3 0.7 0.5 1.6 0.5 2.5zm-1.4 0c0-0.8-0.1-1.5-0.4-2.1s-0.6-1.2-1-1.7-1-0.8-1.5-1.1c-0.6-0.3-1.2-0.4-1.9-0.4s-1.3 0.1-1.9 0.4-1.1 0.6-1.6 1.1-0.8 1-1 1.7-0.4 1.4-0.4 2.1 0.1 1.4 0.3 2 0.6 1.2 1 1.7 0.9 0.8 1.5 1.1 1.3 0.4 2 0.4 1.3-0.1 1.9-0.4 1.1-0.6 1.5-1.1 0.8-1 1-1.7c0.4-0.5 0.5-1.2 0.5-2zm-6.1 3.7h-1.1v-7h2.7c0.9 0 1.5 0.2 1.9 0.5s0.6 0.8 0.6 1.5c0 0.6-0.2 1.1-0.5 1.4-0.4 0.3-0.8 0.5-1.3 0.5l2 3.1h-1.3l-1.8-3h-1.1l-0.1 3zm1.3-4h0.6c0.2 0 0.4-0.1 0.5-0.2s0.3-0.2 0.4-0.3 0.1-0.3 0.1-0.6c0-0.2 0-0.4-0.1-0.5s-0.2-0.2-0.4-0.3-0.3-0.1-0.5-0.1h-0.5-1.4v2h1.3z"/>
</svg>
